<?xml version="1.0" encoding="utf-8"?><!DOCTYPE svg PUBLIC "-//W3C//DTD SVG 1.1//EN" "http://www.w3.org/Graphics/SVG/1.1/DTD/svg11.dtd"><svg xmlns="http://www.w3.org/2000/svg" xmlns:xlink="http://www.w3.org/1999/xlink" version="1.1" id="4717034223" x="0px" y="0px" width="100%" height="100%" viewBox="0 0 160 160" enable-background="new 0 0 160 160" xml:space="preserve" preserveAspectRatio="none" class="element svg-element"><path id="eqxiu.com_4_" fill="#2F3030" d="M24.731,130.094c0.415,0.45,0.834,0.896,1.26,1.336l-3.644,3.521  c-0.454-0.47-0.902-0.945-1.345-1.427L24.731,130.094z M5.711,69.729L0.69,69.062c-0.17,1.277-0.31,2.574-0.417,3.855l5.049,0.421  C5.421,72.139,5.553,70.924,5.711,69.729z M5.066,80.596L0,80.661c0.017,1.282,0.064,2.587,0.143,3.872l5.056-0.307  C5.126,83.021,5.081,81.8,5.066,80.596z M8.482,102.033l-4.832,1.521c0.386,1.229,0.809,2.463,1.255,3.67l4.751-1.758  C9.239,104.339,8.844,103.184,8.482,102.033z M5.99,91.441l-5.003,0.797c0.202,1.271,0.438,2.555,0.703,3.813l4.958-1.041  C6.4,93.834,6.179,92.633,5.99,91.441z M16.9,39.295l-4.257-2.746c-0.698,1.082-1.379,2.197-2.023,3.314l4.387,2.533  C15.61,41.351,16.247,40.308,16.9,39.295z M7.928,59.074l-4.869-1.396c-0.354,1.233-0.682,2.497-0.977,3.756l4.934,1.152  C7.291,61.409,7.598,60.228,7.928,59.074z M23.45,30.596l-3.813-3.335c-0.846,0.966-1.68,1.97-2.482,2.983l3.973,3.144  C21.877,32.439,22.659,31.5,23.45,30.596z M11.687,48.853l-4.614-2.091c-0.535,1.18-1.045,2.382-1.517,3.574l4.709,1.865  C10.708,51.085,11.186,49.958,11.687,48.853z M44.006,8.391l2.27,4.529c1.079-0.541,2.183-1.061,3.278-1.543l-2.043-4.636  C46.339,7.257,45.161,7.812,44.006,8.391z M54.75,3.963l1.582,4.812c1.143-0.376,2.312-0.729,3.475-1.048l-1.342-4.885  C57.222,3.184,55.972,3.561,54.75,3.963z M12.501,112.145l-4.555,2.215c0.566,1.166,1.165,2.324,1.778,3.445l4.444-2.433  C13.594,114.322,13.033,113.236,12.501,112.145z M66.033,1.155l0.858,4.993c1.184-0.204,2.393-0.382,3.593-0.528l-0.616-5.028  C68.588,0.748,67.298,0.938,66.033,1.155z M34.025,14.34l2.905,4.15c0.984-0.688,2.001-1.364,3.021-2.007l-2.699-4.287  C36.163,12.883,35.076,13.604,34.025,14.34z M13.774,124.418c0.725,1.062,1.485,2.121,2.261,3.148l4.043-3.053  c-0.727-0.963-1.44-1.955-2.119-2.951L13.774,124.418z M25.012,21.677l3.476,3.688c0.878-0.829,1.788-1.646,2.701-2.426  l-3.292-3.852C26.921,19.92,25.951,20.792,25.012,21.677z M77.784,5.088c0.612-0.015,1.225-0.022,1.84-0.022V0  c-0.656,0-1.309,0.008-1.961,0.023L77.784,5.088z M80.431,7.942v5.066c36.924,0,66.965,30.04,66.965,66.965  s-30.041,66.966-66.965,66.966v5.064c39.717,0,72.031-32.312,72.031-72.031S120.148,7.942,80.431,7.942z" style="fill: rgb(140, 184, 207);"></path><path id="eqxiu.com_3_" fill="#C0BFBF" d="M127.582,126.673l-93.399-0.001V33.275l93.399-0.001V126.673z M34.816,126.039  l92.132,0.001V33.907l-92.132,0.001V126.039z" style="fill: rgb(140, 184, 207);"></path><path id="eqxiu.com_2_" fill="#898989" d="M80.883,14.327L14.84,80.369l66.042,66.043l66.042-66.043L80.883,14.327z M81.199,33.274  h17.734l47.096,47.095L81.199,145.2V33.274z M80.566,15.54v110.817H61.723L15.736,80.369L80.566,15.54z" style="fill: rgb(140, 184, 207);"></path><path id="eqxiu.com_1_" fill="#666666" d="M10.579,79.974c0-38.597,31.401-69.998,69.999-69.998v1  c-38.046,0-68.999,30.952-68.999,68.998c0,38.045,30.953,68.999,68.999,68.999v1C41.98,149.973,10.579,118.57,10.579,79.974z   M154.482,80.369c0,41.115-33.449,74.564-74.564,74.564c-20.557,0-39.704-8.188-53.912-23.055l-3.662,3.5  C37.517,151.256,57.964,160,79.918,160c43.908,0,79.63-35.723,79.63-79.631H154.482z" style="fill: rgb(140, 184, 207);"></path></svg>